<?xml version="1.0" standalone="no"?><!DOCTYPE svg PUBLIC "-//W3C//DTD SVG 1.1//EN" "http://www.w3.org/Graphics/SVG/1.1/DTD/svg11.dtd"><svg t="1604017389078" class="icon" viewBox="0 0 1024 1024" version="1.1" xmlns="http://www.w3.org/2000/svg" p-id="3106" xmlns:xlink="http://www.w3.org/1999/xlink" width="200" height="200"><defs><style type="text/css"></style></defs><path d="M704 0c-176.736 0-320 143.264-320 320 0 20.032 1.856 39.616 5.376 58.624L0 768v192a64 64 0 0 0 64 64h64v-64h128v-128h128v-128h128l83.04-83.04A319.264 319.264 0 0 0 704 640c176.736 0 320-143.264 320-320S880.736 0 704 0z m95.872 320.128a96 96 0 1 1 0-192 96 96 0 0 1 0 192z" p-id="3107" fill="#8a8a8a"></path></svg>