<?xml version="1.0" standalone="no"?><!DOCTYPE svg PUBLIC "-//W3C//DTD SVG 1.1//EN" "http://www.w3.org/Graphics/SVG/1.1/DTD/svg11.dtd"><svg t="1603811378582" class="icon" viewBox="0 0 1024 1024" version="1.1" xmlns="http://www.w3.org/2000/svg" p-id="4419" xmlns:xlink="http://www.w3.org/1999/xlink" width="200" height="200"><defs><style type="text/css"></style></defs><path d="M204.668416 622.2336c87.5008 124.8768 194.4064 127.9488 320.768 9.1648 97.536-91.648 142.336-84.48 280.576 41.8304 23.04 20.992 36.4544 117.6064 40.2432 289.8432H204.668416L149.679616 744.2944 204.668416 622.2336z" fill="#e6e6e6" p-id="4420"></path><path d="M679.190016 515.7888a350.8224 350.8224 0 0 0-20.736-35.3792l-18.3296-27.392V126.8224A51.2 51.2 0 0 1 651.183616 25.6H767.868416a51.2 51.2 0 0 1 0 102.4h-25.344v293.888l1.024 1.536c20.48 30.464 38.2976 66.048 51.6096 102.8096l114.688 316.5184C945.942016 942.08 897.404416 1024 797.052416 1024H227.298816C126.946816 1024 78.409216 942.08 114.402816 842.752l114.688-316.5184a482.304 482.304 0 0 1 51.712-102.8608l0.9728-1.536V128H255.868416a51.2 51.2 0 1 1 0-102.4h120.5248a51.2 51.2 0 0 1 7.7824 101.8368v325.632l-18.3808 27.3408a380.16 380.16 0 0 0-40.448 80.7424l-12.1344 33.536c49.4592 48.9472 103.0656 43.4688 179.5072-20.1216 62.0544-51.6096 121.856-71.7312 186.4704-58.7776z m52.0704 134.656c-72.3968-50.0224-112.896-47.2064-173.056 2.8672-100.9664 83.968-199.3216 99.2768-281.9072 43.264L210.658816 877.568c-13.056 36.1472-8.3968 43.9808 16.64 43.9808h569.7024c25.088 0 29.696-7.8336 16.5888-43.9808l-82.3296-227.1744zM563.068416 307.2a51.2 51.2 0 1 1 0-102.4 51.2 51.2 0 0 1 0 102.4zM460.668416 460.8a51.2 51.2 0 1 1 0-102.4 51.2 51.2 0 0 1 0 102.4z" fill="#e6e6e6" p-id="4421"></path></svg>